<svg aria-hidden="true" style="position: absolute; width: 0; height: 0; overflow: hidden;" version="1.1" xmlns="http://www.w3.org/2000/svg" xmlns:xlink="http://www.w3.org/1999/xlink">
<defs>
<symbol id="icon-piano" viewBox="0 0 32 32">
<path d="M0 28v-23h31v23h-31zM6 18h-1v-12h-4v21h5v-9zM12 18h-1v-12h-3v12h-1v9h5v-9zM18 18h-1v-12h-3v12h-1v9h5v-9zM20 6v12h-1v9h5v-9h-1v-12h-3zM30 6h-4v12h-1v9h5v-21z"></path>
</symbol>
<symbol id="icon-fire" viewBox="0 0 22 28">
<path d="M22 26.5v1c0 0.266-0.234 0.5-0.5 0.5h-21c-0.266 0-0.5-0.234-0.5-0.5v-1c0-0.266 0.234-0.5 0.5-0.5h21c0.266 0 0.5 0.234 0.5 0.5zM18 10c0 5.984-7 6.516-7 10.5 0 1.094 0.547 2.547 1.047 3.5l-0.063-0.016 0.016 0.016c-4.312-1.984-8-4.719-8-10 0-5.984 7-6.516 7-10.5 0-1.094-0.547-2.547-1.031-3.5l0.047 0.016-0.016-0.016c4.312 1.984 8 4.719 8 10z"></path>
</symbol>
<symbol id="icon-battery" viewBox="0 0 36 28">
<path d="M30 8v12h-26v-12h26zM32 17h2v-6h-2v-4.5c0-0.281-0.219-0.5-0.5-0.5h-29c-0.281 0-0.5 0.219-0.5 0.5v15c0 0.281 0.219 0.5 0.5 0.5h29c0.281 0 0.5-0.219 0.5-0.5v-4.5zM36 11v6c0 1.109-0.891 2-2 2v2.5c0 1.375-1.125 2.5-2.5 2.5h-29c-1.375 0-2.5-1.125-2.5-2.5v-15c0-1.375 1.125-2.5 2.5-2.5h29c1.375 0 2.5 1.125 2.5 2.5v2.5c1.109 0 2 0.891 2 2z"></path>
</symbol>
<symbol id="icon-truck" viewBox="0 0 32 32">
<path d="M32 18l-4-8h-6v-4c0-1.1-0.9-2-2-2h-18c-1.1 0-2 0.9-2 2v16l2 2h2.536c-0.341 0.588-0.536 1.271-0.536 2 0 2.209 1.791 4 4 4s4-1.791 4-4c0-0.729-0.196-1.412-0.536-2h11.073c-0.341 0.588-0.537 1.271-0.537 2 0 2.209 1.791 4 4 4s4-1.791 4-4c0-0.729-0.196-1.412-0.537-2h2.537v-6zM22 18v-6h4.146l3 6h-7.146z"></path>
</symbol>
</defs>
</svg>
